<svg xmlns="http://www.w3.org/2000/svg" width="252" height="252" viewBox="0 0 252 252"><path fill="#231f20" d="M16.7 71.2s1.7-.7 7.7-3.7 5.2-3.9 5.5-12.7 11.7-16.6 21.8-19.3c12.7-3.4 5.8 3.5 7.8-13.9.9-7.8 6.1-18.3 6.1-18.3s22.6 14 28.7 29.6 6.6 28.7 8.2 51.1c.9 13.2-1.5 13.5 15.3 20.2 9.7 3.9 40 12.2 48.7 37.4s-4 79.6 5.6 81.3 55.3-9.4 49.2-38.1-28.7-16.3-29.6-5.8 9.6 14.8 7 18.3-27.8-7.8-17.4-28.7 48.7-24.4 54.8 7.8-16.9 69.9-62.5 69.9c-32.2 0-83.6-.4-104.5-.4s-36.8 5-36.5-5.2 8-13.5 16.8-12.7c5.2.5 10.2-3.8 8.4-25.6s-3.5-65.2-2.6-76.5 2.6-31.8-7-32.2C35.3 93.3 14 98 16.7 71.2z"/></svg>