<svg xmlns="http://www.w3.org/2000/svg" width="252" height="252" viewBox="0 0 252 252"><path fill="#231f20" d="M16.4 42.9c-1.9 6.5.4 28 8.1 29.7s20.5-8.9 28.8-2.5c13 9.9 14-.3 7.2 12.7-2.8 5.4-13.6 20.4-13.6 33.1s8.9 28.9 12.7 36.9 2.5 56.1-2.1 64.1-9.3 13.6-16.1 14.4-10.2 13.7-4.2 14.6 29.7-1.7 40.8-2.1 93.9 0 97.7-.8 25.9.8 37.4-.4 17.8-7.2 22.1-14.4 6.8-18.3 6.8-18.3l-7.6 3.4s11-14.4 11-29.7-8.1-29.7-8.1-29.7l-1.3 11s-3-11.9-8.9-17-18.3-8.1-18.3-8.1 23.8 47.6 10.6 65.8-30.6 21.7-33.5 8.9 11.9-46.3-8.5-66.7-42-24.6-46.7-38.6-3.9-44.5-8.1-62.4c-6.4-27.6-11.5-24.6 4.2-23.4 8.6.7 6.4-8.5-8.1-14s-21.6-8.1-27.2 5-10.2 8.1-23.4 7.6S61.4 32.7 52 36.1s-32.3-4.4-35.6 6.8z"/></svg>