<svg id="Layer_1" data-name="Layer 1" xmlns="http://www.w3.org/2000/svg" width="252" height="252" viewBox="0 0 252 252"><title>Rabbit</title><path d="M217.3,206c-8.2-5.7-19.7,1.5-19.7,1.5s12.3-58.9-13.9-76.9-64.6,5.7-71.2-6.5c-2.3-4.3.2-12.3,4.5-21.7l.8-.6c9.1-6.4,18.2-5.6,22.4-1.7s6.9-6.5-2.5-7.1a80.5,80.5,0,0,0-16.6.9l-1.2.2a49.1,49.1,0,0,1,4-5.6c3.5-4.3,8.9-9.5,14.8-9.5,9.9,0,27.1,1.1,22.1-2s-12.1-.6-16.3-1.8-.1-6.2,8.6-9.2,8.3-6.7,4.5-6.3-11.7,4.2-15.8,8.1A88.1,88.1,0,0,1,129.2,78c2.2-4.4,4.3-8.6,6-12.6,2.7-1.8,4.8-3.4,3.7-4.5a2.2,2.2,0,0,0-1.8-.5,35.9,35.9,0,0,0,2.3-10c.8-18.8-1.6-65.4-14.7-40.1-9.8,19-20.2,69.6-25.9,95.8-.2.5-.3.8-1.4.9-5.6.8-.6-9.2.5-11.3s-5.4-5-6.7,2.5-.6,8.3-5.6,12.4a22.2,22.2,0,0,0-5.1,7.1,2.1,2.1,0,0,1-1.2-1.2c-2.3-5.2.8-9.7,5-17.5s11-15.2,16.5-21,6.4-17.1,3.5-18-2.2,10.5-4.5,14.9-8,8.6-7,1.7A88.2,88.2,0,0,1,97,60.4c1.8-5.4,1.9-14.2.6-17.8s-4.8-2.4-3.8,6.8-1.7,15-4.6,11.7-3.7-10.8-8.6-14,3.3,11.9,7.5,20.9-5.7,23.3-5.7,23.3a80.2,80.2,0,0,0-6.6-16.6c-2.1-3.8-5-4.4-7-3.7C64.5,44.7,59,17,53.6,10.3,42.9-2.8,34.7,52,43.7,79.9c4,12.3,9.9,24,14.8,33.9a14.4,14.4,0,0,1-3.2.5c-6.8.2-8.2-1.9-12.1-3.2s-6.2-8-5.8-13.9-2.8-4.9-3.5-1.5-1.2,9.6,5.7,17.9c4,4.8,13.7,5.5,21.9,6.2,4.6,9.6,7.5,16.9,5.2,20.7-4.9,8.2-12.3,19.6-12.3,26.2,0,3.3,3.9,7,8.8,9.9-.2,2.3-.3,5.8.8,8.4a11.8,11.8,0,0,0,5.5,5.8c-.2-.3-2.5-4.7-2.5-8.7a31,31,0,0,1,.2-3.4l2.9,1.2a14.2,14.2,0,0,0,.9,5.1,11.8,11.8,0,0,0,5.5,5.8c-.2-.3-2.5-4.7-2.5-8.7,0-.3,0-.7,0-1a15.7,15.7,0,0,0,3.2.4c7.4,0,35.2-13.1,30.3-3.3s-4,46.3-14.7,47.5c-29.5,3.3-11.3,19.3-11.3,19.3s9.6,2,48.1,1.2,68.7-1.6,79.4-4.9S225.5,211.7,217.3,206ZM76.4,96.4a18,18,0,0,1-2.2,5.9c-1.3-7.6-2.7-16.7-4.3-26.2C74.5,78.9,78.2,86.4,76.4,96.4Zm15.9,26.8c-4.5,2.8-5.5,4.1-9.7,2.9.8-4,1.3-6.1,6.4-9.6l1.3-1.1h0a7.4,7.4,0,0,1,4.6-.5c1.4.4-1.4-1.9,0,0C94.1,117,92.9,122.8,92.3,123.2Z"/><path d="M123.9,88.4l-2.7,5.4-1.2.2A49.1,49.1,0,0,1,123.9,88.4Z"/></svg>