<svg xmlns="http://www.w3.org/2000/svg"><symbol id="cat" viewBox="0 0 252 252"><path d="M16.7 71.2s1.7-.7 7.7-3.7 5.2-3.9 5.5-12.7 11.7-16.6 21.8-19.3c12.7-3.4 5.8 3.5 7.8-13.9.9-7.8 6.1-18.3 6.1-18.3s22.6 14 28.7 29.6 6.6 28.7 8.2 51.1c.9 13.2-1.5 13.5 15.3 20.2 9.7 3.9 40 12.2 48.7 37.4s-4 79.6 5.6 81.3 55.3-9.4 49.2-38.1-28.7-16.3-29.6-5.8 9.6 14.8 7 18.3-27.8-7.8-17.4-28.7 48.7-24.4 54.8 7.8-16.9 69.9-62.5 69.9c-32.2 0-83.6-.4-104.5-.4s-36.8 5-36.5-5.2 8-13.5 16.8-12.7c5.2.5 10.2-3.8 8.4-25.6s-3.5-65.2-2.6-76.5 2.6-31.8-7-32.2C35.3 93.3 14 98 16.7 71.2z"/></symbol><symbol id="check" viewBox="0 0 252 252"><path d="M89.6 226.9h-.5a18.5 18.5 0 0 1-13.5-6.4L7 141.1a18.5 18.5 0 1 1 28-24.2l55.3 64L214.1 51.3a18.5 18.5 0 1 1 26.8 25.6L103 221.2a18.5 18.5 0 0 1-13.4 5.7z"/></symbol><symbol id="dog" viewBox="0 0 252 252"><path d="M16.4 42.9c-1.9 6.5.4 28 8.1 29.7s20.5-8.9 28.8-2.5c13 9.9 14-.3 7.2 12.7-2.8 5.4-13.6 20.4-13.6 33.1s8.9 28.9 12.7 36.9 2.5 56.1-2.1 64.1-9.3 13.6-16.1 14.4-10.2 13.7-4.2 14.6 29.7-1.7 40.8-2.1 93.9 0 97.7-.8 25.9.8 37.4-.4 17.8-7.2 22.1-14.4 6.8-18.3 6.8-18.3l-7.6 3.4s11-14.4 11-29.7-8.1-29.7-8.1-29.7l-1.3 11s-3-11.9-8.9-17-18.3-8.1-18.3-8.1 23.8 47.6 10.6 65.8-30.6 21.7-33.5 8.9 11.9-46.3-8.5-66.7-42-24.6-46.7-38.6-3.9-44.5-8.1-62.4c-6.4-27.6-11.5-24.6 4.2-23.4 8.6.7 6.4-8.5-8.1-14s-21.6-8.1-27.2 5-10.2 8.1-23.4 7.6S61.4 32.7 52 36.1s-32.3-4.4-35.6 6.8z"/></symbol><symbol id="down" viewBox="0 0 252 252"><path d="M123.5 219.6h-.3a18.5 18.5 0 0 1-13.7-6.4L7.7 95.2a18.5 18.5 0 1 1 28-24.2l88.2 102.2 93.2-101.6a18.5 18.5 0 0 1 27.3 25l-107.3 117a18.5 18.5 0 0 1-13.6 6z"/></symbol><symbol id="fill" viewBox="0 0 252 252"><circle cx="124.9" cy="126" r="119.7"/></symbol><symbol id="rabbit" viewBox="0 0 252 252"><path d="M217.3 206c-8.2-5.7-19.7 1.5-19.7 1.5s12.3-58.9-13.9-76.9-64.6 5.7-71.2-6.5c-2.3-4.3.2-12.3 4.5-21.7l.8-.6c9.1-6.4 18.2-5.6 22.4-1.7s6.9-6.5-2.5-7.1a80.5 80.5 0 0 0-16.6.9l-1.2.2a49.1 49.1 0 0 1 4-5.6c3.5-4.3 8.9-9.5 14.8-9.5 9.9 0 27.1 1.1 22.1-2s-12.1-.6-16.3-1.8-.1-6.2 8.6-9.2 8.3-6.7 4.5-6.3-11.7 4.2-15.8 8.1A88.1 88.1 0 0 1 129.2 78c2.2-4.4 4.3-8.6 6-12.6 2.7-1.8 4.8-3.4 3.7-4.5a2.2 2.2 0 0 0-1.8-.5 35.9 35.9 0 0 0 2.3-10c.8-18.8-1.6-65.4-14.7-40.1-9.8 19-20.2 69.6-25.9 95.8-.2.5-.3.8-1.4.9-5.6.8-.6-9.2.5-11.3s-5.4-5-6.7 2.5-.6 8.3-5.6 12.4a22.2 22.2 0 0 0-5.1 7.1 2.1 2.1 0 0 1-1.2-1.2c-2.3-5.2.8-9.7 5-17.5s11-15.2 16.5-21 6.4-17.1 3.5-18-2.2 10.5-4.5 14.9-8 8.6-7 1.7A88.2 88.2 0 0 1 97 60.4c1.8-5.4 1.9-14.2.6-17.8s-4.8-2.4-3.8 6.8-1.7 15-4.6 11.7-3.7-10.8-8.6-14S83.9 59 88.1 68s-5.7 23.3-5.7 23.3a80.2 80.2 0 0 0-6.6-16.6c-2.1-3.8-5-4.4-7-3.7-4.3-26.3-9.8-54-15.2-60.7C42.9-2.8 34.7 52 43.7 79.9c4 12.3 9.9 24 14.8 33.9a14.4 14.4 0 0 1-3.2.5c-6.8.2-8.2-1.9-12.1-3.2s-6.2-8-5.8-13.9-2.8-4.9-3.5-1.5-1.2 9.6 5.7 17.9c4 4.8 13.7 5.5 21.9 6.2 4.6 9.6 7.5 16.9 5.2 20.7-4.9 8.2-12.3 19.6-12.3 26.2 0 3.3 3.9 7 8.8 9.9-.2 2.3-.3 5.8.8 8.4a11.8 11.8 0 0 0 5.5 5.8c-.2-.3-2.5-4.7-2.5-8.7a31 31 0 0 1 .2-3.4l2.9 1.2a14.2 14.2 0 0 0 .9 5.1 11.8 11.8 0 0 0 5.5 5.8c-.2-.3-2.5-4.7-2.5-8.7v-1a15.7 15.7 0 0 0 3.2.4c7.4 0 35.2-13.1 30.3-3.3s-4 46.3-14.7 47.5C63.3 229 81.5 245 81.5 245s9.6 2 48.1 1.2 68.7-1.6 79.4-4.9 16.5-29.6 8.3-35.3zM76.4 96.4a18 18 0 0 1-2.2 5.9c-1.3-7.6-2.7-16.7-4.3-26.2 4.6 2.8 8.3 10.3 6.5 20.3zm15.9 26.8c-4.5 2.8-5.5 4.1-9.7 2.9.8-4 1.3-6.1 6.4-9.6l1.3-1.1a7.4 7.4 0 0 1 4.6-.5c1.4.4-1.4-1.9 0 0-.8 2.1-2 7.9-2.6 8.3z"/><path d="M123.9 88.4l-2.7 5.4-1.2.2a49.1 49.1 0 0 1 3.9-5.6z"/></symbol><symbol id="uncheck" viewBox="0 0 252 252"><path d="M127.4 250.1a122.7 122.7 0 1 1 122.7-122.7 122.8 122.8 0 0 1-122.7 122.7zm0-212.1a89.3 89.3 0 1 0 89.3 89.3A89.4 89.4 0 0 0 127.4 38z"/></symbol></svg>