<svg id="Layer_1" data-name="Layer 1" xmlns="http://www.w3.org/2000/svg" width="256" height="256" viewBox="0 0 256 256"><title>logo</title><path d="M177.9,164.7a239.5,239.5,0,0,0,1.7,24.2c1.6,13.2,2,29.5,2,29.5a306.9,306.9,0,0,1-64.9-7.6c-9.8-2.2-19.1-4.7-27.7-7.6a242.5,242.5,0,0,1-24.2-9.2L51.4,2.2l63.4,16.9,11.8,140.9A299.1,299.1,0,0,0,177.9,164.7Z" fill="#193a4f"/><path d="M50.4,74.8l3.1,44.3c-2.1,1-7.9,2.2-14.8,5.3-9.2-6.3-11.9-10.8-14.4-17.2-1.8-4.5-2.4-10.1-.3-14.2C28.8,83.6,37.8,77.4,50.4,74.8Z" fill="#8eb5d3"/><path d="M53.4,138.1l3.8,52.4c-17.8-10.3-32.5-27.2-37.5-36.8l-3.4-47.2c3.2,5.2,8.6,16,18,22.7h0C39.9,133,46.2,135.3,53.4,138.1Z" fill="#8eb5d3"/><path d="M244.9,139l3.3,47.2a16,16,0,0,1-1.4,4.3c-2.4,5.1-6.5,9.2-12.5,12.4-8.5-8.3-22.2-12-34-9a39.1,39.1,0,0,0-.3-4.4c-1.7-14.1-13.2-24.3-13.2-24.3,17.3-1,31.9-4.1,42.3-9.1,7.1-3.4,12.1-7.7,14.5-12.8A16.3,16.3,0,0,0,244.9,139Z" fill="#8eb5d3"/><path d="M235.2,129.5l.6,8a17.3,17.3,0,0,1-1.2,4.3c-2.2,5.1-6.7,8.4-16.7,11.1-16-12.9-34.6-21.8-65.5-29.6-9.7-2.4-19.3-4.3-22.4-4.5l-3.3-47.2c3.1.3,12.7,2.1,22.4,4.5q7.7,1.9,15,4.2C204.7,93.1,230.2,111.6,235.2,129.5Z" fill="#8eb5d3"/><path d="M235.1,243.6c-9.4,7.1-25.8,3.8-36.6-7.5s-12-26.1-2.7-33.2a17.5,17.5,0,0,1,4.9-2.6c8.9-3,20.8.1,29.8,8.3l1.9,1.8C243.3,221.7,244.5,236.5,235.1,243.6Z" fill="#8eb5d3"/></svg>